<svg width="329" height="36" viewBox="0 0 329 36" fill="none" xmlns="http://www.w3.org/2000/svg">
<path d="M112.512 29V9.56H116.976C117.856 9.56 118.616 9.656 119.256 9.848C119.912 10.04 120.456 10.336 120.888 10.736C121.32 11.136 121.64 11.648 121.848 12.272C122.056 12.88 122.16 13.6 122.16 14.432C122.16 15.232 122.056 15.928 121.848 16.52C121.656 17.096 121.352 17.552 120.936 17.888C120.536 18.224 120.016 18.44 119.376 18.536C120.16 18.712 120.792 19.016 121.272 19.448C121.752 19.864 122.104 20.408 122.328 21.08C122.568 21.736 122.688 22.528 122.688 23.456C122.688 24.288 122.592 25.048 122.4 25.736C122.208 26.424 121.904 27.008 121.488 27.488C121.088 27.968 120.568 28.344 119.928 28.616C119.304 28.872 118.56 29 117.696 29H112.512ZM115.224 27.056H117.048C118.264 27.056 119.072 26.776 119.472 26.216C119.888 25.64 120.096 24.72 120.096 23.456C120.096 22.64 119.984 21.96 119.76 21.416C119.552 20.856 119.208 20.44 118.728 20.168C118.264 19.88 117.632 19.736 116.832 19.736H115.224V27.056ZM115.224 17.672H116.832C117.6 17.672 118.2 17.568 118.632 17.36C119.064 17.136 119.368 16.784 119.544 16.304C119.72 15.824 119.808 15.2 119.808 14.432C119.808 13.536 119.672 12.888 119.4 12.488C119.128 12.088 118.704 11.84 118.128 11.744C117.552 11.632 116.8 11.576 115.872 11.576H115.224V17.672ZM125.122 29V9.56H127.69V29H125.122ZM135.55 29.216C134.238 29.216 133.19 28.96 132.406 28.448C131.622 27.936 131.062 27.208 130.726 26.264C130.39 25.304 130.222 24.184 130.222 22.904V15.536C130.222 14.256 130.39 13.16 130.726 12.248C131.078 11.32 131.638 10.616 132.406 10.136C133.19 9.64 134.238 9.392 135.55 9.392C136.862 9.392 137.902 9.64 138.67 10.136C139.438 10.632 139.99 11.336 140.326 12.248C140.678 13.16 140.854 14.256 140.854 15.536V22.928C140.854 24.192 140.678 25.296 140.326 26.24C139.99 27.184 139.438 27.92 138.67 28.448C137.902 28.96 136.862 29.216 135.55 29.216ZM135.55 27.08C136.27 27.08 136.814 26.936 137.182 26.648C137.55 26.344 137.798 25.928 137.926 25.4C138.054 24.856 138.118 24.224 138.118 23.504V14.984C138.118 14.264 138.054 13.648 137.926 13.136C137.798 12.608 137.55 12.208 137.182 11.936C136.814 11.648 136.27 11.504 135.55 11.504C134.83 11.504 134.278 11.648 133.894 11.936C133.526 12.208 133.278 12.608 133.15 13.136C133.022 13.648 132.958 14.264 132.958 14.984V23.504C132.958 24.224 133.022 24.856 133.15 25.4C133.278 25.928 133.526 26.344 133.894 26.648C134.278 26.936 134.83 27.08 135.55 27.08ZM148.152 29.24C146.936 29.24 145.96 28.984 145.224 28.472C144.504 27.944 143.976 27.184 143.64 26.192C143.32 25.2 143.16 24.008 143.16 22.616V16.112C143.16 14.688 143.304 13.48 143.592 12.488C143.896 11.48 144.424 10.712 145.176 10.184C145.944 9.656 147.008 9.392 148.368 9.392C149.584 9.392 150.56 9.6 151.296 10.016C152.048 10.416 152.592 11.04 152.928 11.888C153.264 12.72 153.432 13.776 153.432 15.056V15.776H150.888V15.176C150.888 14.328 150.832 13.64 150.72 13.112C150.608 12.568 150.376 12.168 150.024 11.912C149.688 11.64 149.152 11.504 148.416 11.504C147.616 11.504 147.032 11.688 146.664 12.056C146.312 12.424 146.088 12.928 145.992 13.568C145.912 14.192 145.872 14.904 145.872 15.704V22.904C145.872 23.832 145.936 24.608 146.064 25.232C146.208 25.856 146.472 26.32 146.856 26.624C147.24 26.928 147.784 27.08 148.488 27.08C149.192 27.08 149.736 26.912 150.12 26.576C150.504 26.24 150.768 25.744 150.912 25.088C151.056 24.432 151.128 23.616 151.128 22.64V21.296H148.656V19.376H153.576V29H151.872L151.608 26.768C151.352 27.488 150.952 28.08 150.408 28.544C149.864 29.008 149.112 29.24 148.152 29.24ZM161.848 29V9.56H166.672C167.84 9.56 168.768 9.776 169.456 10.208C170.16 10.624 170.672 11.232 170.992 12.032C171.312 12.832 171.472 13.8 171.472 14.936C171.472 15.96 171.288 16.848 170.92 17.6C170.568 18.352 170.04 18.936 169.336 19.352C168.632 19.752 167.752 19.952 166.696 19.952H164.56V29H161.848ZM164.56 18.008H165.808C166.592 18.008 167.208 17.92 167.656 17.744C168.104 17.568 168.424 17.264 168.616 16.832C168.808 16.384 168.904 15.76 168.904 14.96C168.904 14.032 168.832 13.32 168.688 12.824C168.56 12.328 168.28 11.984 167.848 11.792C167.416 11.6 166.744 11.504 165.832 11.504H164.56V18.008ZM178.347 29.216C177.035 29.216 175.987 28.96 175.203 28.448C174.419 27.936 173.859 27.208 173.523 26.264C173.187 25.304 173.019 24.184 173.019 22.904V15.536C173.019 14.256 173.187 13.16 173.523 12.248C173.875 11.32 174.435 10.616 175.203 10.136C175.987 9.64 177.035 9.392 178.347 9.392C179.659 9.392 180.699 9.64 181.467 10.136C182.235 10.632 182.787 11.336 183.123 12.248C183.475 13.16 183.651 14.256 183.651 15.536V22.928C183.651 24.192 183.475 25.296 183.123 26.24C182.787 27.184 182.235 27.92 181.467 28.448C180.699 28.96 179.659 29.216 178.347 29.216ZM178.347 27.08C179.067 27.08 179.611 26.936 179.979 26.648C180.347 26.344 180.595 25.928 180.723 25.4C180.851 24.856 180.915 24.224 180.915 23.504V14.984C180.915 14.264 180.851 13.648 180.723 13.136C180.595 12.608 180.347 12.208 179.979 11.936C179.611 11.648 179.067 11.504 178.347 11.504C177.627 11.504 177.075 11.648 176.691 11.936C176.323 12.208 176.075 12.608 175.947 13.136C175.819 13.648 175.755 14.264 175.755 14.984V23.504C175.755 24.224 175.819 24.856 175.947 25.4C176.075 25.928 176.323 26.344 176.691 26.648C177.075 26.936 177.627 27.08 178.347 27.08ZM190.901 29.216C189.781 29.216 188.845 28.976 188.093 28.496C187.357 28.016 186.797 27.352 186.413 26.504C186.029 25.656 185.805 24.672 185.741 23.552L188.141 22.904C188.189 23.592 188.293 24.256 188.453 24.896C188.629 25.536 188.909 26.064 189.293 26.48C189.677 26.88 190.213 27.08 190.901 27.08C191.605 27.08 192.133 26.888 192.485 26.504C192.853 26.104 193.037 25.536 193.037 24.8C193.037 23.92 192.837 23.216 192.437 22.688C192.037 22.144 191.533 21.6 190.925 21.056L187.661 18.176C187.021 17.616 186.549 17.008 186.245 16.352C185.941 15.68 185.789 14.856 185.789 13.88C185.789 12.456 186.197 11.352 187.013 10.568C187.829 9.784 188.941 9.392 190.349 9.392C191.117 9.392 191.789 9.496 192.365 9.704C192.957 9.896 193.445 10.2 193.829 10.616C194.229 11.032 194.541 11.56 194.765 12.2C195.005 12.824 195.165 13.56 195.245 14.408L192.941 15.032C192.893 14.392 192.797 13.808 192.653 13.28C192.509 12.736 192.253 12.304 191.885 11.984C191.533 11.648 191.021 11.48 190.349 11.48C189.677 11.48 189.149 11.664 188.765 12.032C188.397 12.384 188.213 12.912 188.213 13.616C188.213 14.208 188.309 14.696 188.501 15.08C188.709 15.464 189.037 15.856 189.485 16.256L192.773 19.136C193.509 19.776 194.157 20.544 194.717 21.44C195.277 22.32 195.557 23.368 195.557 24.584C195.557 25.544 195.357 26.376 194.957 27.08C194.557 27.768 194.005 28.296 193.301 28.664C192.613 29.032 191.813 29.216 190.901 29.216ZM199.796 29V11.576H196.508V9.56H205.7V11.576H202.508V29H199.796ZM212.159 29.216C211.039 29.216 210.103 28.976 209.351 28.496C208.615 28.016 208.055 27.352 207.671 26.504C207.287 25.656 207.063 24.672 206.999 23.552L209.399 22.904C209.447 23.592 209.551 24.256 209.711 24.896C209.887 25.536 210.167 26.064 210.551 26.48C210.935 26.88 211.471 27.08 212.159 27.08C212.863 27.08 213.391 26.888 213.743 26.504C214.111 26.104 214.295 25.536 214.295 24.8C214.295 23.92 214.095 23.216 213.695 22.688C213.295 22.144 212.791 21.6 212.183 21.056L208.919 18.176C208.279 17.616 207.807 17.008 207.503 16.352C207.199 15.68 207.047 14.856 207.047 13.88C207.047 12.456 207.455 11.352 208.271 10.568C209.087 9.784 210.199 9.392 211.607 9.392C212.375 9.392 213.047 9.496 213.623 9.704C214.215 9.896 214.703 10.2 215.087 10.616C215.487 11.032 215.799 11.56 216.023 12.2C216.263 12.824 216.423 13.56 216.503 14.408L214.199 15.032C214.151 14.392 214.055 13.808 213.911 13.28C213.767 12.736 213.511 12.304 213.143 11.984C212.791 11.648 212.279 11.48 211.607 11.48C210.935 11.48 210.407 11.664 210.023 12.032C209.655 12.384 209.471 12.912 209.471 13.616C209.471 14.208 209.567 14.696 209.759 15.08C209.967 15.464 210.295 15.856 210.743 16.256L214.031 19.136C214.767 19.776 215.415 20.544 215.975 21.44C216.535 22.32 216.815 23.368 216.815 24.584C216.815 25.544 216.615 26.376 216.215 27.08C215.815 27.768 215.263 28.296 214.559 28.664C213.871 29.032 213.071 29.216 212.159 29.216Z" fill="black"/>
<line x1="226.995" y1="18.5" x2="328.995" y2="17.5" stroke="black"/>
<line x1="-0.00490173" y1="18.5" x2="101.995" y2="17.5" stroke="black"/>
</svg>
