<svg width="20" height="20" viewBox="0 0 20 20" fill="none" xmlns="http://www.w3.org/2000/svg">
<path d="M16.4167 15.25L12.9167 11.75C12.75 11.5833 12.5 11.5 12.25 11.5C12.9167 10.6667 13.3333 9.49999 13.3333 8.33333C13.3333 5.58333 11.0833 3.33333 8.33333 3.33333C5.58333 3.33333 3.33333 5.58333 3.33333 8.33333C3.33333 11.0833 5.58333 13.3333 8.33333 13.3333C9.49999 13.3333 10.6667 12.9167 11.5 12.1667C11.5 12.4167 11.5 12.6667 11.75 12.8333L15.25 16.3333C15.4167 16.5 15.6667 16.5833 15.8333 16.5833C16 16.5833 16.25 16.5 16.4167 16.3333C16.75 16.0833 16.75 15.5833 16.4167 15.25ZM8.33333 12.0833C6.24999 12.0833 4.58333 10.4167 4.58333 8.33333C4.58333 6.24999 6.24999 4.58333 8.33333 4.58333C10.4167 4.58333 12.0833 6.24999 12.0833 8.33333C12.0833 10.4167 10.4167 12.0833 8.33333 12.0833Z" fill="white"/>
</svg>
